# generated by tools/scad2obj from build/3mf/car_roof_box.3mf
v -0.48 0 0.7 0.09803922 0.09803922 0.09803922
v -0.42 0 0.7 0.09803922 0.09803922 0.09803922
v -0.42 0.07 0.7 0.09803922 0.09803922 0.09803922
vn 0 0 0.9996325
f 1//1 2//1 3//1
v -0.48 0 0.7 0.09803922 0.09803922 0.09803922
v -0.42 0.07 0.7 0.09803922 0.09803922 0.09803922
v -0.48 0.07 0.7 0.09803922 0.09803922 0.09803922
vn 0 0 0.9996325
f 4//2 5//2 6//2
v -0.48 0 0.7 0.09803922 0.09803922 0.09803922
v -0.48 0.07 0.7 0.09803922 0.09803922 0.09803922
v -0.48 0.07 0.4 0.09803922 0.09803922 0.09803922
vn -1 0 0
f 7//3 8//3 9//3
v -0.48 0.07 0.7 0.09803922 0.09803922 0.09803922
v -0.42 0.07 0.7 0.09803922 0.09803922 0.09803922
v -0.48 0.07 0.4 0.09803922 0.09803922 0.09803922
vn -0 1 0
f 10//4 11//4 12//4
v -0.42 0.07 0.7 0.09803922 0.09803922 0.09803922
v -0.42 0.07 0.4 0.09803922 0.09803922 0.09803922
v -0.48 0.07 0.4 0.09803922 0.09803922 0.09803922
vn 0 1 0
f 13//5 14//5 15//5
v -0.48 0 0.7 0.09803922 0.09803922 0.09803922
v -0.42 0 -0.7 0.09803922 0.09803922 0.09803922
v -0.42 0 0.7 0.09803922 0.09803922 0.09803922
vn 0 -1 0
f 16//6 17//6 18//6
v -0.48 0 0.7 0.09803922 0.09803922 0.09803922
v -0.48 0.07 0.4 0.09803922 0.09803922 0.09803922
v -0.48 0.07 -0.4 0.09803922 0.09803922 0.09803922
vn -0.99999994 0 0
f 19//7 20//7 21//7
v -0.42 0 0.7 0.09803922 0.09803922 0.09803922
v -0.42 0 -0.7 0.09803922 0.09803922 0.09803922
v -0.42 0.07 0.7 0.09803922 0.09803922 0.09803922
vn 0.99999994 -0 0
f 22//8 23//8 24//8
v -0.42 0.07 0.7 0.09803922 0.09803922 0.09803922
v -0.42 0 -0.7 0.09803922 0.09803922 0.09803922
v -0.42 0.07 0.4 0.09803922 0.09803922 0.09803922
vn 1 0 0
f 25//9 26//9 27//9
v -0.48 0 0.7 0.09803922 0.09803922 0.09803922
v -0.48 0.07 -0.4 0.09803922 0.09803922 0.09803922
v -0.48 0.07 -0.7 0.09803922 0.09803922 0.09803922
vn -1 0 0
f 28//10 29//10 30//10
v -0.48 0 0.7 0.09803922 0.09803922 0.09803922
v -0.48 0 -0.7 0.09803922 0.09803922 0.09803922
v -0.42 0 -0.7 0.09803922 0.09803922 0.09803922
vn 0 -1 0
f 31//11 32//11 33//11
v -0.48 0 0.7 0.09803922 0.09803922 0.09803922
v -0.48 0.07 -0.7 0.09803922 0.09803922 0.09803922
v -0.48 0 -0.7 0.09803922 0.09803922 0.09803922
vn -0.99999994 0 0
f 34//12 35//12 36//12
v -0.48 0.07 -0.7 0.09803922 0.09803922 0.09803922
v -0.48 0.07 -0.4 0.09803922 0.09803922 0.09803922
v -0.42 0.07 -0.4 0.09803922 0.09803922 0.09803922
vn 0 1 0
f 37//13 38//13 39//13
v -0.48 0 -0.7 0.09803922 0.09803922 0.09803922
v -0.48 0.07 -0.7 0.09803922 0.09803922 0.09803922
v -0.42 0 -0.7 0.09803922 0.09803922 0.09803922
vn 0 0 -0.9996325
f 40//14 41//14 42//14
v -0.42 0 -0.7 0.09803922 0.09803922 0.09803922
v -0.48 0.07 -0.7 0.09803922 0.09803922 0.09803922
v -0.42 0.07 -0.7 0.09803922 0.09803922 0.09803922
vn 0 0 -0.9996325
f 43//15 44//15 45//15
v -0.48 0.07 -0.7 0.09803922 0.09803922 0.09803922
v -0.42 0.07 -0.4 0.09803922 0.09803922 0.09803922
v -0.42 0.07 -0.7 0.09803922 0.09803922 0.09803922
vn 0 1 0
f 46//16 47//16 48//16
v -0.42 0 -0.7 0.09803922 0.09803922 0.09803922
v -0.42 0.07 -0.4 0.09803922 0.09803922 0.09803922
v -0.42 0.07 0.4 0.09803922 0.09803922 0.09803922
vn 0.99999994 0 0
f 49//17 50//17 51//17
v -0.42 0 -0.7 0.09803922 0.09803922 0.09803922
v -0.42 0.07 -0.7 0.09803922 0.09803922 0.09803922
v -0.42 0.07 -0.4 0.09803922 0.09803922 0.09803922
vn 1 0 0
f 52//18 53//18 54//18
v 0.42 0 0.7 0.09803922 0.09803922 0.09803922
v 0.48 0 0.7 0.09803922 0.09803922 0.09803922
v 0.48 0.07 0.7 0.09803922 0.09803922 0.09803922
vn 0 0 0.9996325
f 55//19 56//19 57//19
v 0.42 0 0.7 0.09803922 0.09803922 0.09803922
v 0.48 0.07 0.7 0.09803922 0.09803922 0.09803922
v 0.42 0.07 0.7 0.09803922 0.09803922 0.09803922
vn 0 0 0.9996325
f 58//20 59//20 60//20
v 0.42 0 0.7 0.09803922 0.09803922 0.09803922
v 0.42 0.07 0.7 0.09803922 0.09803922 0.09803922
v 0.42 0.07 0.4 0.09803922 0.09803922 0.09803922
vn -1 0 0
f 61//21 62//21 63//21
v 0.42 0.07 0.7 0.09803922 0.09803922 0.09803922
v 0.48 0.07 0.7 0.09803922 0.09803922 0.09803922
v 0.42 0.07 0.4 0.09803922 0.09803922 0.09803922
vn -0 1 0
f 64//22 65//22 66//22
v 0.48 0.07 0.7 0.09803922 0.09803922 0.09803922
v 0.48 0.07 0.4 0.09803922 0.09803922 0.09803922
v 0.42 0.07 0.4 0.09803922 0.09803922 0.09803922
vn 0 1 0
f 67//23 68//23 69//23
v 0.42 0 0.7 0.09803922 0.09803922 0.09803922
v 0.48 0 -0.7 0.09803922 0.09803922 0.09803922
v 0.48 0 0.7 0.09803922 0.09803922 0.09803922
vn 0 -1 0
f 70//24 71//24 72//24
v 0.48 0 0.7 0.09803922 0.09803922 0.09803922
v 0.48 0 -0.7 0.09803922 0.09803922 0.09803922
v 0.48 0.07 0.7 0.09803922 0.09803922 0.09803922
vn 0.99999994 -0 0
f 73//25 74//25 75//25
v 0.42 0 0.7 0.09803922 0.09803922 0.09803922
v 0.42 0.07 0.4 0.09803922 0.09803922 0.09803922
v 0.42 0.07 -0.4 0.09803922 0.09803922 0.09803922
vn -0.99999994 0 0
f 76//26 77//26 78//26
v 0.48 0.07 0.7 0.09803922 0.09803922 0.09803922
v 0.48 0 -0.7 0.09803922 0.09803922 0.09803922
v 0.48 0.07 0.4 0.09803922 0.09803922 0.09803922
vn 1 0 0
f 79//27 80//27 81//27
v 0.42 0 0.7 0.09803922 0.09803922 0.09803922
v 0.42 0.07 -0.4 0.09803922 0.09803922 0.09803922
v 0.42 0.07 -0.7 0.09803922 0.09803922 0.09803922
vn -1 0 0
f 82//28 83//28 84//28
v 0.42 0 0.7 0.09803922 0.09803922 0.09803922
v 0.42 0 -0.7 0.09803922 0.09803922 0.09803922
v 0.48 0 -0.7 0.09803922 0.09803922 0.09803922
vn 0 -1 0
f 85//29 86//29 87//29
v 0.42 0 0.7 0.09803922 0.09803922 0.09803922
v 0.42 0.07 -0.7 0.09803922 0.09803922 0.09803922
v 0.42 0 -0.7 0.09803922 0.09803922 0.09803922
vn -0.99999994 0 0
f 88//30 89//30 90//30
v 0.48 0 -0.7 0.09803922 0.09803922 0.09803922
v 0.48 0.07 -0.4 0.09803922 0.09803922 0.09803922
v 0.48 0.07 0.4 0.09803922 0.09803922 0.09803922
vn 0.99999994 0 0
f 91//31 92//31 93//31
v 0.42 0.07 -0.7 0.09803922 0.09803922 0.09803922
v 0.42 0.07 -0.4 0.09803922 0.09803922 0.09803922
v 0.48 0.07 -0.4 0.09803922 0.09803922 0.09803922
vn 0 1 0
f 94//32 95//32 96//32
v 0.48 0 -0.7 0.09803922 0.09803922 0.09803922
v 0.48 0.07 -0.7 0.09803922 0.09803922 0.09803922
v 0.48 0.07 -0.4 0.09803922 0.09803922 0.09803922
vn 1 0 0
f 97//33 98//33 99//33
v 0.42 0 -0.7 0.09803922 0.09803922 0.09803922
v 0.42 0.07 -0.7 0.09803922 0.09803922 0.09803922
v 0.48 0 -0.7 0.09803922 0.09803922 0.09803922
vn 0 0 -0.9996325
f 100//34 101//34 102//34
v 0.48 0 -0.7 0.09803922 0.09803922 0.09803922
v 0.42 0.07 -0.7 0.09803922 0.09803922 0.09803922
v 0.48 0.07 -0.7 0.09803922 0.09803922 0.09803922
vn 0 0 -0.9996325
f 103//35 104//35 105//35
v 0.42 0.07 -0.7 0.09803922 0.09803922 0.09803922
v 0.48 0.07 -0.4 0.09803922 0.09803922 0.09803922
v 0.48 0.07 -0.7 0.09803922 0.09803922 0.09803922
vn 0 1 0
f 106//36 107//36 108//36
v -0.9 0.07 0.4 0.91764706 0.91764706 0.91764706
v -0.48 0.07 0.4 0.91764706 0.91764706 0.91764706
v -0.9 0.17 0.4 0.91764706 0.91764706 0.91764706
vn 0 0 1
f 109//37 110//37 111//37
v -0.9 0.17 0.4 0.91764706 0.91764706 0.91764706
v -0.48 0.07 0.4 0.91764706 0.91764706 0.91764706
v -0.42 0.07 0.4 0.91764706 0.91764706 0.91764706
vn 0 0 0.9999908
f 112//38 113//38 114//38
v -0.9 0.07 0.4 0.91764706 0.91764706 0.91764706
v -0.9 0.17 0.4 0.91764706 0.91764706 0.91764706
v -0.9 0.07 -0.4 0.91764706 0.91764706 0.91764706
vn -1 0 0
f 115//39 116//39 117//39
v -0.9 0.07 0.4 0.91764706 0.91764706 0.91764706
v -0.48 0.07 -0.4 0.91764706 0.91764706 0.91764706
v -0.48 0.07 0.4 0.91764706 0.91764706 0.91764706
vn 0 -1 0
f 118//40 119//40 120//40
v -0.9 0.17 0.4 0.91764706 0.91764706 0.91764706
v -0.42 0.07 0.4 0.91764706 0.91764706 0.91764706
v 0.42 0.07 0.4 0.91764706 0.91764706 0.91764706
vn 0 0 1
f 121//41 122//41 123//41
v -0.9 0.17 0.4 0.91764706 0.91764706 0.91764706
v 0.42 0.07 0.4 0.91764706 0.91764706 0.91764706
v 0.48 0.07 0.4 0.91764706 0.91764706 0.91764706
vn 0 0 0.9999907
f 124//42 125//42 126//42
v -0.9 0.17 0.4 0.91764706 0.91764706 0.91764706
v -0.8 0.45 0.36 0.91764706 0.91764706 0.91764706
v -0.8 0.45 -0.36 0.91764706 0.91764706 0.91764706
vn -0.941742 0.3363363 3.2715892e-09
f 127//43 128//43 129//43
v -0.9 0.17 0.4 0.91764706 0.91764706 0.91764706
v 0.5 0.45 0.36 0.91764706 0.91764706 0.91764706
v -0.8 0.45 0.36 0.91764706 0.91764706 0.91764706
vn -7.821477e-10 0.14142133 0.98994946
f 130//44 131//44 132//44
v -0.9 0.07 0.4 0.91764706 0.91764706 0.91764706
v -0.9 0.07 -0.4 0.91764706 0.91764706 0.91764706
v -0.48 0.07 -0.4 0.91764706 0.91764706 0.91764706
vn 0 -1 0
f 133//45 134//45 135//45
v -0.9 0.17 0.4 0.91764706 0.91764706 0.91764706
v -0.9 0.17 -0.4 0.91764706 0.91764706 0.91764706
v -0.9 0.07 -0.4 0.91764706 0.91764706 0.91764706
vn -1 0 -0
f 136//46 137//46 138//46
v -0.9 0.07 -0.4 0.91764706 0.91764706 0.91764706
v -0.9 0.17 -0.4 0.91764706 0.91764706 0.91764706
v -0.48 0.07 -0.4 0.91764706 0.91764706 0.91764706
vn 0 0 -1
f 139//47 140//47 141//47
v -0.9 0.17 -0.4 0.91764706 0.91764706 0.91764706
v -0.42 0.07 -0.4 0.91764706 0.91764706 0.91764706
v -0.48 0.07 -0.4 0.91764706 0.91764706 0.91764706
vn 0 0 -0.99999076
f 142//48 143//48 144//48
v -0.42 0.07 -0.4 0.91764706 0.91764706 0.91764706
v 0.42 0.07 -0.4 0.91764706 0.91764706 0.91764706
v -0.42 0.07 0.4 0.91764706 0.91764706 0.91764706
vn 0 -1 0
f 145//49 146//49 147//49
v -0.9 0.17 -0.4 0.91764706 0.91764706 0.91764706
v 0.42 0.07 -0.4 0.91764706 0.91764706 0.91764706
v -0.42 0.07 -0.4 0.91764706 0.91764706 0.91764706
vn 0 0 -1
f 148//50 149//50 150//50
v -0.9 0.17 -0.4 0.91764706 0.91764706 0.91764706
v 0.48 0.07 -0.4 0.91764706 0.91764706 0.91764706
v 0.42 0.07 -0.4 0.91764706 0.91764706 0.91764706
vn 0 0 -0.9999908
f 151//51 152//51 153//51
v -0.9 0.17 0.4 0.91764706 0.91764706 0.91764706
v -0.8 0.45 -0.36 0.91764706 0.91764706 0.91764706
v -0.9 0.17 -0.4 0.91764706 0.91764706 0.91764706
vn -0.94174194 0.33633634 0
f 154//52 155//52 156//52
v -0.8 0.45 0.36 0.91764706 0.91764706 0.91764706
v 0.5 0.45 -0.36 0.91764706 0.91764706 0.91764706
v -0.8 0.45 -0.36 0.91764706 0.91764706 0.91764706
vn 0 1 0
f 157//53 158//53 159//53
v -0.9 0.17 -0.4 0.91764706 0.91764706 0.91764706
v -0.8 0.45 -0.36 0.91764706 0.91764706 0.91764706
v 0.5 0.45 -0.36 0.91764706 0.91764706 0.91764706
vn 7.821477e-10 0.14142133 -0.98994946
f 160//54 161//54 162//54
v -0.9 0.17 0.4 0.91764706 0.91764706 0.91764706
v 0.48 0.07 0.4 0.91764706 0.91764706 0.91764706
v 0.65 0.07 0.4 0.91764706 0.91764706 0.91764706
vn 0 0 1
f 163//55 164//55 165//55
v -0.9 0.17 0.4 0.91764706 0.91764706 0.91764706
v 0.65 0.07 0.4 0.91764706 0.91764706 0.91764706
v 0.65 0.17 0.4 0.91764706 0.91764706 0.91764706
vn -0 0 1
f 166//56 167//56 168//56
v 0.42 0.07 0.4 0.91764706 0.91764706 0.91764706
v -0.42 0.07 0.4 0.91764706 0.91764706 0.91764706
v 0.42 0.07 -0.4 0.91764706 0.91764706 0.91764706
vn -0 -1 -0
f 169//57 170//57 171//57
v 0.65 0.07 0.4 0.91764706 0.91764706 0.91764706
v 0.48 0.07 0.4 0.91764706 0.91764706 0.91764706
v 0.65 0.07 -0.4 0.91764706 0.91764706 0.91764706
vn -0 -1 -0
f 172//58 173//58 174//58
v 0.65 0.07 0.4 0.91764706 0.91764706 0.91764706
v 0.99 0.1 -0.18 0.91764706 0.91764706 0.91764706
v 0.99 0.1 0.18 0.91764706 0.91764706 0.91764706
vn 0.08789381 -0.9961299 -8.731467e-10
f 175//59 176//59 177//59
v 0.65 0.07 0.4 0.91764706 0.91764706 0.91764706
v 0.99 0.1 0.18 0.91764706 0.91764706 0.91764706
v 0.65 0.17 0.4 0.91764706 0.91764706 0.91764706
vn 0.5432512 -0 0.8395702
f 178//60 179//60 180//60
v 0.65 0.17 0.4 0.91764706 0.91764706 0.91764706
v 0.99 0.1 0.18 0.91764706 0.91764706 0.91764706
v 0.99 0.24 0.18 0.91764706 0.91764706 0.91764706
vn 0.5432512 -1.8923558e-09 0.83957016
f 181//61 182//61 183//61
v 0.99 0.1 0.18 0.91764706 0.91764706 0.91764706
v 0.99 0.1 -0.18 0.91764706 0.91764706 0.91764706
v 0.99 0.24 0.18 0.91764706 0.91764706 0.91764706
vn 0.99999994 -0 0
f 184//62 185//62 186//62
v -0.9 0.17 0.4 0.91764706 0.91764706 0.91764706
v 0.65 0.17 0.4 0.91764706 0.91764706 0.91764706
v 0.5 0.45 0.36 0.91764706 0.91764706 0.91764706
vn -0 0.14142133 0.9899495
f 187//63 188//63 189//63
v -0.8 0.45 0.36 0.91764706 0.91764706 0.91764706
v 0.5 0.45 0.36 0.91764706 0.91764706 0.91764706
v 0.5 0.45 -0.36 0.91764706 0.91764706 0.91764706
vn -0 1 0
f 190//64 191//64 192//64
v 0.65 0.17 0.4 0.91764706 0.91764706 0.91764706
v 0.99 0.24 0.18 0.91764706 0.91764706 0.91764706
v 0.5 0.45 0.36 0.91764706 0.91764706 0.91764706
vn 0.45363167 0.3595108 0.81545705
f 193//65 194//65 195//65
v 0.99 0.24 0.18 0.91764706 0.91764706 0.91764706
v 0.5 0.45 -0.36 0.91764706 0.91764706 0.91764706
v 0.5 0.45 0.36 0.91764706 0.91764706 0.91764706
vn 0.3939193 0.91914505 9.472516e-10
f 196//66 197//66 198//66
v -0.9 0.17 -0.4 0.91764706 0.91764706 0.91764706
v 0.65 0.07 -0.4 0.91764706 0.91764706 0.91764706
v 0.48 0.07 -0.4 0.91764706 0.91764706 0.91764706
vn 0 0 -1
f 199//67 200//67 201//67
v -0.9 0.17 -0.4 0.91764706 0.91764706 0.91764706
v 0.65 0.17 -0.4 0.91764706 0.91764706 0.91764706
v 0.65 0.07 -0.4 0.91764706 0.91764706 0.91764706
vn 0 0 -1
f 202//68 203//68 204//68
v 0.65 0.07 -0.4 0.91764706 0.91764706 0.91764706
v 0.48 0.07 0.4 0.91764706 0.91764706 0.91764706
v 0.48 0.07 -0.4 0.91764706 0.91764706 0.91764706
vn 0 -1 0
f 205//69 206//69 207//69
v 0.65 0.07 0.4 0.91764706 0.91764706 0.91764706
v 0.65 0.07 -0.4 0.91764706 0.91764706 0.91764706
v 0.99 0.1 -0.18 0.91764706 0.91764706 0.91764706
vn 0.08789381 -0.99612993 0
f 208//70 209//70 210//70
v 0.99 0.24 0.18 0.91764706 0.91764706 0.91764706
v 0.99 0.1 -0.18 0.91764706 0.91764706 0.91764706
v 0.99 0.24 -0.18 0.91764706 0.91764706 0.91764706
vn 0.99999994 0 0
f 211//71 212//71 213//71
v 0.99 0.1 -0.18 0.91764706 0.91764706 0.91764706
v 0.65 0.07 -0.4 0.91764706 0.91764706 0.91764706
v 0.65 0.17 -0.4 0.91764706 0.91764706 0.91764706
vn 0.5432512 2.649298e-09 -0.8395702
f 214//72 215//72 216//72
v 0.99 0.1 -0.18 0.91764706 0.91764706 0.91764706
v 0.65 0.17 -0.4 0.91764706 0.91764706 0.91764706
v 0.99 0.24 -0.18 0.91764706 0.91764706 0.91764706
vn 0.5432512 0 -0.8395702
f 217//73 218//73 219//73
v -0.9 0.17 -0.4 0.91764706 0.91764706 0.91764706
v 0.5 0.45 -0.36 0.91764706 0.91764706 0.91764706
v 0.65 0.17 -0.4 0.91764706 0.91764706 0.91764706
vn 0 0.14142133 -0.9899495
f 220//74 221//74 222//74
v 0.99 0.24 -0.18 0.91764706 0.91764706 0.91764706
v 0.65 0.17 -0.4 0.91764706 0.91764706 0.91764706
v 0.5 0.45 -0.36 0.91764706 0.91764706 0.91764706
vn 0.4536317 0.35951078 -0.81545705
f 223//75 224//75 225//75
v 0.99 0.24 0.18 0.91764706 0.91764706 0.91764706
v 0.99 0.24 -0.18 0.91764706 0.91764706 0.91764706
v 0.5 0.45 -0.36 0.91764706 0.91764706 0.91764706
vn 0.3939193 0.91914505 0
f 226//76 227//76 228//76
