# generated by tools/scad2obj from build/3mf/lodge_roof_flat.3mf
v 1.25 0 1.25 0.96862745 0.96862745 0.96862745
v 1.25 0 -1.25 0.96862745 0.96862745 0.96862745
v -1.25 0 -1.25 0.96862745 0.96862745 0.96862745
vn 0 1 0
f 1//1 2//1 3//1
v -1.25 0 1.25 0.96862745 0.96862745 0.96862745
v 1.25 0 1.25 0.96862745 0.96862745 0.96862745
v -1.25 0 -1.25 0.96862745 0.96862745 0.96862745
vn -0 1 0
f 4//2 5//2 6//2
v -1.25 -0.25 -1.25 0.96862745 0.96862745 0.96862745
v 1.25 -0.25 -1.25 0.96862745 0.96862745 0.96862745
v 1.25 -0.25 1.25 0.96862745 0.96862745 0.96862745
vn 0 -1 0
f 7//3 8//3 9//3
v -1.25 -0.25 -1.25 0.96862745 0.96862745 0.96862745
v 1.25 -0.25 1.25 0.96862745 0.96862745 0.96862745
v -1.25 -0.25 1.25 0.96862745 0.96862745 0.96862745
vn 0 -1 0
f 10//4 11//4 12//4
v 1.25 -0.25 -1.25 0.96862745 0.96862745 0.96862745
v -1.25 0 -1.25 0.96862745 0.96862745 0.96862745
v 1.25 0 -1.25 0.96862745 0.96862745 0.96862745
vn 0 0 -1
f 13//5 14//5 15//5
v -1.25 0 -1.25 0.96862745 0.96862745 0.96862745
v 1.25 -0.25 -1.25 0.96862745 0.96862745 0.96862745
v -1.25 -0.25 -1.25 0.96862745 0.96862745 0.96862745
vn 0 0 -1
f 16//6 17//6 18//6
v 1.25 0 1.25 0.96862745 0.96862745 0.96862745
v 1.25 -0.25 -1.25 0.96862745 0.96862745 0.96862745
v 1.25 0 -1.25 0.96862745 0.96862745 0.96862745
vn 1 0 0
f 19//7 20//7 21//7
v 1.25 -0.25 -1.25 0.96862745 0.96862745 0.96862745
v 1.25 0 1.25 0.96862745 0.96862745 0.96862745
v 1.25 -0.25 1.25 0.96862745 0.96862745 0.96862745
vn 1 0 0
f 22//8 23//8 24//8
v -1.25 -0.25 1.25 0.96862745 0.96862745 0.96862745
v 1.25 0 1.25 0.96862745 0.96862745 0.96862745
v -1.25 0 1.25 0.96862745 0.96862745 0.96862745
vn 0 0 1
f 25//9 26//9 27//9
v 1.25 0 1.25 0.96862745 0.96862745 0.96862745
v -1.25 -0.25 1.25 0.96862745 0.96862745 0.96862745
v 1.25 -0.25 1.25 0.96862745 0.96862745 0.96862745
vn 0 0 1
f 28//10 29//10 30//10
v -1.25 -0.25 1.25 0.96862745 0.96862745 0.96862745
v -1.25 0 -1.25 0.96862745 0.96862745 0.96862745
v -1.25 -0.25 -1.25 0.96862745 0.96862745 0.96862745
vn -1 0 0
f 31//11 32//11 33//11
v -1.25 0 -1.25 0.96862745 0.96862745 0.96862745
v -1.25 -0.25 1.25 0.96862745 0.96862745 0.96862745
v -1.25 0 1.25 0.96862745 0.96862745 0.96862745
vn -1 0 0
f 34//12 35//12 36//12
