# generated by tools/scad2obj from build/3mf/lodge_chimney.3mf
v -0.55 -1 0.55 0.61960787 0.60784316 0.6
v 0.55 -1 0.55 0.61960787 0.60784316 0.6
v -0.55 3.9 0.55 0.61960787 0.60784316 0.6
vn 0 0 1
f 1//1 2//1 3//1
v -0.55 -1 0.55 0.61960787 0.60784316 0.6
v -0.55 3.9 0.55 0.61960787 0.60784316 0.6
v -0.55 3.9 -0.55 0.61960787 0.60784316 0.6
vn -1 0 0
f 4//2 5//2 6//2
v -0.55 -1 0.55 0.61960787 0.60784316 0.6
v -0.55 3.9 -0.55 0.61960787 0.60784316 0.6
v -0.55 -1 -0.55 0.61960787 0.60784316 0.6
vn -1 0 0
f 7//3 8//3 9//3
v -0.55 -1 0.55 0.61960787 0.60784316 0.6
v -0.55 -1 -0.55 0.61960787 0.60784316 0.6
v 0.55 -1 -0.55 0.61960787 0.60784316 0.6
vn 0 -1 0
f 10//4 11//4 12//4
v -0.55 -1 -0.55 0.61960787 0.60784316 0.6
v -0.55 3.9 -0.55 0.61960787 0.60784316 0.6
v 0.55 3.9 -0.55 0.61960787 0.60784316 0.6
vn 0 0 -1
f 13//5 14//5 15//5
v -0.55 -1 0.55 0.61960787 0.60784316 0.6
v 0.55 -1 -0.55 0.61960787 0.60784316 0.6
v 0.55 -1 0.55 0.61960787 0.60784316 0.6
vn 0 -1 0
f 16//6 17//6 18//6
v 0.55 -1 0.55 0.61960787 0.60784316 0.6
v 0.55 -1 -0.55 0.61960787 0.60784316 0.6
v 0.55 3.9 0.55 0.61960787 0.60784316 0.6
vn 1 -0 0
f 19//7 20//7 21//7
v 0.55 -1 0.55 0.61960787 0.60784316 0.6
v 0.55 3.9 0.55 0.61960787 0.60784316 0.6
v -0.55 3.9 0.55 0.61960787 0.60784316 0.6
vn 0 -0 1
f 22//8 23//8 24//8
v -0.55 -1 -0.55 0.61960787 0.60784316 0.6
v 0.55 3.9 -0.55 0.61960787 0.60784316 0.6
v 0.55 -1 -0.55 0.61960787 0.60784316 0.6
vn 0 0 -1
f 25//9 26//9 27//9
v 0.55 -1 -0.55 0.61960787 0.60784316 0.6
v 0.55 3.9 -0.55 0.61960787 0.60784316 0.6
v 0.55 3.9 0.55 0.61960787 0.60784316 0.6
vn 1 0 0
f 28//10 29//10 30//10
v -0.65 3.9 0.65 0.54901963 0.5176471 0.49803922
v -0.65 4.1 0.65 0.54901963 0.5176471 0.49803922
v -0.65 4.1 -0.65 0.54901963 0.5176471 0.49803922
vn -1 0 0
f 31//11 32//11 33//11
v -0.65 3.9 0.65 0.54901963 0.5176471 0.49803922
v -0.65 3.9 -0.65 0.54901963 0.5176471 0.49803922
v -0.55 3.9 0.55 0.54901963 0.5176471 0.49803922
vn 0 -1 0
f 34//12 35//12 36//12
v -0.65 3.9 0.65 0.54901963 0.5176471 0.49803922
v 0.65 4.1 0.65 0.54901963 0.5176471 0.49803922
v -0.65 4.1 0.65 0.54901963 0.5176471 0.49803922
vn 0 0 1
f 37//13 38//13 39//13
v -0.65 3.9 0.65 0.54901963 0.5176471 0.49803922
v -0.55 3.9 0.55 0.54901963 0.5176471 0.49803922
v 0.65 3.9 0.65 0.54901963 0.5176471 0.49803922
vn 0 -1 0
f 40//14 41//14 42//14
v -0.65 4.1 0.65 0.54901963 0.5176471 0.49803922
v 0.65 4.1 0.65 0.54901963 0.5176471 0.49803922
v -0.65 4.1 -0.65 0.54901963 0.5176471 0.49803922
vn -0 1 0
f 43//15 44//15 45//15
v -0.65 3.9 0.65 0.54901963 0.5176471 0.49803922
v -0.65 4.1 -0.65 0.54901963 0.5176471 0.49803922
v -0.65 3.9 -0.65 0.54901963 0.5176471 0.49803922
vn -1 0 0
f 46//16 47//16 48//16
v -0.65 3.9 -0.65 0.54901963 0.5176471 0.49803922
v -0.55 3.9 -0.55 0.54901963 0.5176471 0.49803922
v -0.55 3.9 0.55 0.54901963 0.5176471 0.49803922
vn 0 -1 0
f 49//17 50//17 51//17
v -0.65 3.9 -0.65 0.54901963 0.5176471 0.49803922
v 0.55 3.9 -0.55 0.54901963 0.5176471 0.49803922
v -0.55 3.9 -0.55 0.54901963 0.5176471 0.49803922
vn 0 -1 0
f 52//18 53//18 54//18
v -0.65 3.9 -0.65 0.54901963 0.5176471 0.49803922
v -0.65 4.1 -0.65 0.54901963 0.5176471 0.49803922
v 0.65 3.9 -0.65 0.54901963 0.5176471 0.49803922
vn 0 0 -1
f 55//19 56//19 57//19
v -0.65 3.9 0.65 0.54901963 0.5176471 0.49803922
v 0.65 3.9 0.65 0.54901963 0.5176471 0.49803922
v 0.65 4.1 0.65 0.54901963 0.5176471 0.49803922
vn 0 0 1
f 58//20 59//20 60//20
v 0.65 3.9 0.65 0.54901963 0.5176471 0.49803922
v -0.55 3.9 0.55 0.54901963 0.5176471 0.49803922
v 0.55 3.9 0.55 0.54901963 0.5176471 0.49803922
vn 0 -1 0
f 61//21 62//21 63//21
v 0.65 3.9 0.65 0.54901963 0.5176471 0.49803922
v 0.55 3.9 0.55 0.54901963 0.5176471 0.49803922
v 0.55 3.9 -0.55 0.54901963 0.5176471 0.49803922
vn 0 -1 0
f 64//22 65//22 66//22
v 0.65 3.9 0.65 0.54901963 0.5176471 0.49803922
v 0.65 3.9 -0.65 0.54901963 0.5176471 0.49803922
v 0.65 4.1 0.65 0.54901963 0.5176471 0.49803922
vn 1 -0 0
f 67//23 68//23 69//23
v -0.65 4.1 -0.65 0.54901963 0.5176471 0.49803922
v 0.65 4.1 0.65 0.54901963 0.5176471 0.49803922
v 0.65 4.1 -0.65 0.54901963 0.5176471 0.49803922
vn 0 1 0
f 70//24 71//24 72//24
v -0.65 3.9 -0.65 0.54901963 0.5176471 0.49803922
v 0.65 3.9 -0.65 0.54901963 0.5176471 0.49803922
v 0.55 3.9 -0.55 0.54901963 0.5176471 0.49803922
vn 0 -1 0
f 73//25 74//25 75//25
v -0.65 4.1 -0.65 0.54901963 0.5176471 0.49803922
v 0.65 4.1 -0.65 0.54901963 0.5176471 0.49803922
v 0.65 3.9 -0.65 0.54901963 0.5176471 0.49803922
vn 0 0 -1
f 76//26 77//26 78//26
v 0.65 3.9 0.65 0.54901963 0.5176471 0.49803922
v 0.55 3.9 -0.55 0.54901963 0.5176471 0.49803922
v 0.65 3.9 -0.65 0.54901963 0.5176471 0.49803922
vn 0 -1 -0
f 79//27 80//27 81//27
v 0.65 4.1 0.65 0.54901963 0.5176471 0.49803922
v 0.65 3.9 -0.65 0.54901963 0.5176471 0.49803922
v 0.65 4.1 -0.65 0.54901963 0.5176471 0.49803922
vn 1 0 0
f 82//28 83//28 84//28
