# generated by tools/scad2obj from build/3mf/lodge_wall_glazed.3mf
v -1.25 0.35 0.12 0.96862745 0.96862745 0.9490196
v -1.21 0.35 0.09 0.96862745 0.96862745 0.9490196
v -1.17 0.35 0.12 0.96862745 0.96862745 0.9490196
vn 0 -0.9854385 0
f 1//1 2//1 3//1
v -1.17 0.35 0.12 0.96862745 0.96862745 0.9490196
v -1.21 0.35 0.09 0.96862745 0.96862745 0.9490196
v -1.17 0.35 0.09 0.96862745 0.96862745 0.9490196
vn 0 -0.8422318 -0
f 4//2 5//2 6//2
v -1.25 0.35 0.12 0.96862745 0.96862745 0.9490196
v -1.25 0.35 0.06 0.96862745 0.96862745 0.9490196
v -1.21 0.35 0.09 0.96862745 0.96862745 0.9490196
vn 0 -0.98543835 0
f 7//3 8//3 9//3
v -1.21 0.35 0.09 0.96862745 0.96862745 0.9490196
v -1.25 0.35 0.06 0.96862745 0.96862745 0.9490196
v -1.208677 0.35 0.089008 0.96862745 0.96862745 0.9490196
vn 0 -0.081095904 -0
f 10//4 11//4 12//4
v -0.416666 0.35 0.12 0.96862745 0.96862745 0.9490196
v -0.416666 0.35 0.09 0.96862745 0.96862745 0.9490196
v -0.376666 0.35 0.09 0.96862745 0.96862745 0.9490196
vn 0 -0.84223086 0
f 13//5 14//5 15//5
v -0.416666 0.35 0.12 0.96862745 0.96862745 0.9490196
v -0.376666 0.35 0.09 0.96862745 0.96862745 0.9490196
v -0.336666 0.35 0.12 0.96862745 0.96862745 0.9490196
vn 0 -0.9854385 0
f 16//6 17//6 18//6
v -0.336666 0.35 0.12 0.96862745 0.96862745 0.9490196
v -0.376666 0.35 0.09 0.96862745 0.96862745 0.9490196
v -0.336666 0.35 0.09 0.96862745 0.96862745 0.9490196
vn 0 -0.8422311 -0
f 19//7 20//7 21//7
v -1.25 0.35 0.12 0.96862745 0.96862745 0.9490196
v -1.17 0.35 0.12 0.96862745 0.96862745 0.9490196
v -1.25 4.55 0.12 0.96862745 0.96862745 0.9490196
vn 0 0 1
f 22//8 23//8 24//8
v -1.17 0.35 0.12 0.96862745 0.96862745 0.9490196
v -1.17 0.35 0.09 0.96862745 0.96862745 0.9490196
v -1.17 4.55 0.09 0.96862745 0.96862745 0.9490196
vn 1 0 0
f 25//9 26//9 27//9
v -1.25 0.35 0.12 0.96862745 0.96862745 0.9490196
v -1.25 4.55 0.06 0.96862745 0.96862745 0.9490196
v -1.25 0.35 0.06 0.96862745 0.96862745 0.9490196
vn -1 0 0
f 28//10 29//10 30//10
v -1.17 0.35 0.12 0.96862745 0.96862745 0.9490196
v -1.17 4.55 0.12 0.96862745 0.96862745 0.9490196
v -1.25 4.55 0.12 0.96862745 0.96862745 0.9490196
vn 0 -0 1
f 31//11 32//11 33//11
v -1.25 0.35 0.12 0.96862745 0.96862745 0.9490196
v -1.25 4.55 0.12 0.96862745 0.96862745 0.9490196
v -1.25 4.55 0.06 0.96862745 0.96862745 0.9490196
vn -1 0 0
f 34//12 35//12 36//12
v -1.17 0.35 0.12 0.96862745 0.96862745 0.9490196
v -1.17 4.55 0.09 0.96862745 0.96862745 0.9490196
v -1.17 4.55 0.12 0.96862745 0.96862745 0.9490196
vn 1 -0 0
f 37//13 38//13 39//13
v -1.25 4.55 0.12 0.96862745 0.96862745 0.9490196
v -1.25 4.65 0.12 0.96862745 0.96862745 0.9490196
v -1.25 4.65 0.05 0.96862745 0.96862745 0.9490196
vn -0.9999988 0 0
f 40//14 41//14 42//14
v -1.25 4.55 0.12 0.96862745 0.96862745 0.9490196
v -1.25 4.65 0.05 0.96862745 0.96862745 0.9490196
v -1.25 4.55 0.06 0.96862745 0.96862745 0.9490196
vn -0.99999076 0 0
f 43//15 44//15 45//15
v -1.25 4.55 0.06 0.96862745 0.96862745 0.9490196
v -1.25 4.6 0.05 0.96862745 0.96862745 0.9490196
v -1.25 4.55 0.05 0.96862745 0.96862745 0.9490196
vn -0.47149968 0 0
f 46//16 47//16 48//16
v -1.25 4.55 0.06 0.96862745 0.96862745 0.9490196
v -1.25 4.65 0.05 0.96862745 0.96862745 0.9490196
v -1.25 4.6 0.05 0.96862745 0.96862745 0.9490196
vn -0.47150356 0 0
f 49//17 50//17 51//17
v -1.17 4.55 0.12 0.96862745 0.96862745 0.9490196
v -1.17 4.55 0.09 0.96862745 0.96862745 0.9490196
v -0.416666 4.55 0.09 0.96862745 0.96862745 0.9490196
vn 0 -1 0
f 52//18 53//18 54//18
v -1.17 4.55 0.12 0.96862745 0.96862745 0.9490196
v -0.416666 4.55 0.09 0.96862745 0.96862745 0.9490196
v -0.416666 4.55 0.12 0.96862745 0.96862745 0.9490196
vn 0 -1 0
f 55//19 56//19 57//19
v -0.416666 0.35 0.12 0.96862745 0.96862745 0.9490196
v -0.416666 4.55 0.12 0.96862745 0.96862745 0.9490196
v -0.416666 0.35 0.09 0.96862745 0.96862745 0.9490196
vn -1 0 0
f 58//20 59//20 60//20
v -0.416666 0.35 0.12 0.96862745 0.96862745 0.9490196
v -0.336666 0.35 0.12 0.96862745 0.96862745 0.9490196
v -0.416666 4.55 0.12 0.96862745 0.96862745 0.9490196
vn 0 0 0.99999994
f 61//21 62//21 63//21
v -0.336666 0.35 0.12 0.96862745 0.96862745 0.9490196
v -0.336666 0.35 0.09 0.96862745 0.96862745 0.9490196
v -0.336666 4.55 0.09 0.96862745 0.96862745 0.9490196
vn 1 0 0
f 64//22 65//22 66//22
v -0.416666 0.35 0.09 0.96862745 0.96862745 0.9490196
v -0.416666 4.55 0.12 0.96862745 0.96862745 0.9490196
v -0.416666 4.55 0.09 0.96862745 0.96862745 0.9490196
vn -1 0 0
f 67//23 68//23 69//23
v -0.336666 0.35 0.12 0.96862745 0.96862745 0.9490196
v -0.336666 4.55 0.12 0.96862745 0.96862745 0.9490196
v -0.416666 4.55 0.12 0.96862745 0.96862745 0.9490196
vn 0 -0 0.99999994
f 70//24 71//24 72//24
v -0.336666 0.35 0.12 0.96862745 0.96862745 0.9490196
v -0.336666 4.55 0.09 0.96862745 0.96862745 0.9490196
v -0.336666 4.55 0.12 0.96862745 0.96862745 0.9490196
vn 1 -0 0
f 73//25 74//25 75//25
v -1.25 4.55 0.12 0.96862745 0.96862745 0.9490196
v -1.17 4.55 0.12 0.96862745 0.96862745 0.9490196
v 1.25 4.65 0.12 0.96862745 0.96862745 0.9490196
vn 0 0 0.9999999
f 76//26 77//26 78//26
v -1.25 4.55 0.12 0.96862745 0.96862745 0.9490196
v 1.25 4.65 0.12 0.96862745 0.96862745 0.9490196
v -1.25 4.65 0.12 0.96862745 0.96862745 0.9490196
vn 0 0 1
f 79//27 80//27 81//27
v -1.25 4.65 0.12 0.96862745 0.96862745 0.9490196
v 1.25 4.65 0.12 0.96862745 0.96862745 0.9490196
v -1.25 4.65 0.05 0.96862745 0.96862745 0.9490196
vn -0 1 0
f 82//28 83//28 84//28
v -1.25 4.6 0.05 0.96862745 0.96862745 0.9490196
v -1.25 4.65 0.05 0.96862745 0.96862745 0.9490196
v 1.25 4.65 0.05 0.96862745 0.96862745 0.9490196
vn 0 0 -1
f 85//29 86//29 87//29
v -1.17 4.55 0.12 0.96862745 0.96862745 0.9490196
v -0.416666 4.55 0.12 0.96862745 0.96862745 0.9490196
v 1.25 4.65 0.12 0.96862745 0.96862745 0.9490196
vn 0 0 1
f 88//30 89//30 90//30
v -0.336666 4.55 0.12 0.96862745 0.96862745 0.9490196
v -0.336666 4.55 0.09 0.96862745 0.96862745 0.9490196
v 0.416666 4.55 0.09 0.96862745 0.96862745 0.9490196
vn 0 -1 0
f 91//31 92//31 93//31
v 0.416666 0.35 0.12 0.96862745 0.96862745 0.9490196
v 0.456666 0.35 0.09 0.96862745 0.96862745 0.9490196
v 0.496666 0.35 0.12 0.96862745 0.96862745 0.9490196
vn 0 -0.9854385 0
f 94//32 95//32 96//32
v 0.416666 0.35 0.12 0.96862745 0.96862745 0.9490196
v 0.416666 0.35 0.09 0.96862745 0.96862745 0.9490196
v 0.456666 0.35 0.09 0.96862745 0.96862745 0.9490196
vn 0 -0.84223086 0
f 97//33 98//33 99//33
v 0.456666 0.35 0.09 0.96862745 0.96862745 0.9490196
v 0.496666 0.35 0.09 0.96862745 0.96862745 0.9490196
v 0.496666 0.35 0.12 0.96862745 0.96862745 0.9490196
vn 0 -0.8422311 0
f 100//34 101//34 102//34
v 1.17 0.35 0.12 0.96862745 0.96862745 0.9490196
v 1.21 0.35 0.09 0.96862745 0.96862745 0.9490196
v 1.25 0.35 0.12 0.96862745 0.96862745 0.9490196
vn 0 -0.9854385 0
f 103//35 104//35 105//35
v 1.17 0.35 0.12 0.96862745 0.96862745 0.9490196
v 1.17 0.35 0.09 0.96862745 0.96862745 0.9490196
v 1.21 0.35 0.09 0.96862745 0.96862745 0.9490196
vn 0 -0.8422318 0
f 106//36 107//36 108//36
v 1.25 0.35 0.12 0.96862745 0.96862745 0.9490196
v 1.21 0.35 0.09 0.96862745 0.96862745 0.9490196
v 1.25 0.35 0.06 0.96862745 0.96862745 0.9490196
vn 0 -0.98543835 -0
f 109//37 110//37 111//37
v 0.416666 0.35 0.12 0.96862745 0.96862745 0.9490196
v 0.416666 4.55 0.12 0.96862745 0.96862745 0.9490196
v 0.416666 0.35 0.09 0.96862745 0.96862745 0.9490196
vn -1 0 0
f 112//38 113//38 114//38
v 0.416666 0.35 0.12 0.96862745 0.96862745 0.9490196
v 0.496666 0.35 0.12 0.96862745 0.96862745 0.9490196
v 0.416666 4.55 0.12 0.96862745 0.96862745 0.9490196
vn 0 0 0.99999994
f 115//39 116//39 117//39
v 0.496666 0.35 0.12 0.96862745 0.96862745 0.9490196
v 0.496666 0.35 0.09 0.96862745 0.96862745 0.9490196
v 0.496666 4.55 0.09 0.96862745 0.96862745 0.9490196
vn 1 0 0
f 118//40 119//40 120//40
v 0.416666 0.35 0.09 0.96862745 0.96862745 0.9490196
v 0.416666 4.55 0.12 0.96862745 0.96862745 0.9490196
v 0.416666 4.55 0.09 0.96862745 0.96862745 0.9490196
vn -1 0 0
f 121//41 122//41 123//41
v 0.496666 0.35 0.12 0.96862745 0.96862745 0.9490196
v 0.496666 4.55 0.12 0.96862745 0.96862745 0.9490196
v 0.416666 4.55 0.12 0.96862745 0.96862745 0.9490196
vn 0 -0 0.99999994
f 124//42 125//42 126//42
v 0.496666 0.35 0.12 0.96862745 0.96862745 0.9490196
v 0.496666 4.55 0.09 0.96862745 0.96862745 0.9490196
v 0.496666 4.55 0.12 0.96862745 0.96862745 0.9490196
vn 1 -0 0
f 127//43 128//43 129//43
v -0.416666 4.55 0.12 0.96862745 0.96862745 0.9490196
v -0.336666 4.55 0.12 0.96862745 0.96862745 0.9490196
v 1.25 4.65 0.12 0.96862745 0.96862745 0.9490196
vn 0 0 0.99999976
f 130//44 131//44 132//44
v -0.336666 4.55 0.12 0.96862745 0.96862745 0.9490196
v 0.416666 4.55 0.09 0.96862745 0.96862745 0.9490196
v 0.416666 4.55 0.12 0.96862745 0.96862745 0.9490196
vn 0 -1 0
f 133//45 134//45 135//45
v -0.336666 4.55 0.12 0.96862745 0.96862745 0.9490196
v 0.416666 4.55 0.12 0.96862745 0.96862745 0.9490196
v 1.25 4.65 0.12 0.96862745 0.96862745 0.9490196
vn 0 0 1
f 136//46 137//46 138//46
v -1.25 4.65 0.05 0.96862745 0.96862745 0.9490196
v 1.25 4.65 0.12 0.96862745 0.96862745 0.9490196
v 1.25 4.65 0.05 0.96862745 0.96862745 0.9490196
vn 0 1 0
f 139//47 140//47 141//47
v -1.25 4.6 0.05 0.96862745 0.96862745 0.9490196
v 1.25 4.65 0.05 0.96862745 0.96862745 0.9490196
v 1.25 4.6 0.05 0.96862745 0.96862745 0.9490196
vn 0 0 -1
f 142//48 143//48 144//48
v 1.17 0.35 0.12 0.96862745 0.96862745 0.9490196
v 1.17 4.55 0.12 0.96862745 0.96862745 0.9490196
v 1.17 0.35 0.09 0.96862745 0.96862745 0.9490196
vn -1 0 0
f 145//49 146//49 147//49
v 1.17 0.35 0.12 0.96862745 0.96862745 0.9490196
v 1.25 0.35 0.12 0.96862745 0.96862745 0.9490196
v 1.17 4.55 0.12 0.96862745 0.96862745 0.9490196
vn 0 0 1
f 148//50 149//50 150//50
v 1.25 0.35 0.12 0.96862745 0.96862745 0.9490196
v 1.25 0.35 0.06 0.96862745 0.96862745 0.9490196
v 1.25 4.55 0.12 0.96862745 0.96862745 0.9490196
vn 1 -0 0
f 151//51 152//51 153//51
v 1.17 0.35 0.09 0.96862745 0.96862745 0.9490196
v 1.17 4.55 0.12 0.96862745 0.96862745 0.9490196
v 1.17 4.55 0.09 0.96862745 0.96862745 0.9490196
vn -1 0 0
f 154//52 155//52 156//52
v 1.25 0.35 0.12 0.96862745 0.96862745 0.9490196
v 1.25 4.55 0.12 0.96862745 0.96862745 0.9490196
v 1.17 4.55 0.12 0.96862745 0.96862745 0.9490196
vn 0 -0 1
f 157//53 158//53 159//53
v 1.25 0.35 0.06 0.96862745 0.96862745 0.9490196
v 1.25 4.55 0.06 0.96862745 0.96862745 0.9490196
v 1.25 4.55 0.12 0.96862745 0.96862745 0.9490196
vn 1 0 0
f 160//54 161//54 162//54
v 0.416666 4.55 0.12 0.96862745 0.96862745 0.9490196
v 0.496666 4.55 0.12 0.96862745 0.96862745 0.9490196
v 1.25 4.65 0.12 0.96862745 0.96862745 0.9490196
vn 0 0 0.99999976
f 163//55 164//55 165//55
v 0.496666 4.55 0.12 0.96862745 0.96862745 0.9490196
v 0.496666 4.55 0.09 0.96862745 0.96862745 0.9490196
v 1.17 4.55 0.09 0.96862745 0.96862745 0.9490196
vn 0 -1 0
f 166//56 167//56 168//56
v 0.496666 4.55 0.12 0.96862745 0.96862745 0.9490196
v 1.17 4.55 0.12 0.96862745 0.96862745 0.9490196
v 1.25 4.65 0.12 0.96862745 0.96862745 0.9490196
vn 0 0 1
f 169//57 170//57 171//57
v 0.496666 4.55 0.12 0.96862745 0.96862745 0.9490196
v 1.17 4.55 0.09 0.96862745 0.96862745 0.9490196
v 1.17 4.55 0.12 0.96862745 0.96862745 0.9490196
vn 0 -1 0
f 172//58 173//58 174//58
v 1.17 4.55 0.12 0.96862745 0.96862745 0.9490196
v 1.25 4.55 0.12 0.96862745 0.96862745 0.9490196
v 1.25 4.65 0.12 0.96862745 0.96862745 0.9490196
vn 0 0 0.9999999
f 175//59 176//59 177//59
v 1.25 4.55 0.12 0.96862745 0.96862745 0.9490196
v 1.25 4.6 0.09 0.96862745 0.96862745 0.9490196
v 1.25 4.65 0.12 0.96862745 0.96862745 0.9490196
vn 0.9957166 -0 0
f 178//60 179//60 180//60
v 1.25 4.65 0.12 0.96862745 0.96862745 0.9490196
v 1.25 4.6 0.09 0.96862745 0.96862745 0.9490196
v 1.25 4.6 0.084661 0.96862745 0.96862745 0.9490196
vn 0.26674682 0 0
f 181//61 182//61 183//61
v 1.25 4.65 0.12 0.96862745 0.96862745 0.9490196
v 1.25 4.6 0.084661 0.96862745 0.96862745 0.9490196
v 1.25 4.6 0.071538 0.96862745 0.96862745 0.9490196
vn 0.58622843 0 0
f 184//62 185//62 186//62
v 1.25 4.55 0.12 0.96862745 0.96862745 0.9490196
v 1.25 4.55 0.06 0.96862745 0.96862745 0.9490196
v 1.25 4.6 0.09 0.96862745 0.96862745 0.9490196
vn 0.99571645 0 0
f 187//63 188//63 189//63
v 1.25 4.6 0.084661 0.96862745 0.96862745 0.9490196
v 1.25 4.565107 0.06 0.96862745 0.96862745 0.9490196
v 1.25 4.6 0.071538 0.96862745 0.96862745 0.9490196
vn 0.43730274 0 0
f 190//64 191//64 192//64
v 1.25 4.6 0.071538 0.96862745 0.96862745 0.9490196
v 1.25 4.565107 0.06 0.96862745 0.96862745 0.9490196
v 1.25 4.6 0.06 0.96862745 0.96862745 0.9490196
vn 0.3903884 0 0
f 193//65 194//65 195//65
v 1.25 4.65 0.12 0.96862745 0.96862745 0.9490196
v 1.25 4.6 0.071538 0.96862745 0.96862745 0.9490196
v 1.25 4.65 0.05 0.96862745 0.96862745 0.9490196
vn 0.9984595 0 0
f 196//66 197//66 198//66
v 1.25 4.565107 0.06 0.96862745 0.96862745 0.9490196
v 1.25 4.55 0.05 0.96862745 0.96862745 0.9490196
v 1.25 4.6 0.06 0.96862745 0.96862745 0.9490196
vn 0.3428376 -0 0
f 199//67 200//67 201//67
v 1.25 4.55 0.05 0.96862745 0.96862745 0.9490196
v 1.25 4.6 0.05 0.96862745 0.96862745 0.9490196
v 1.25 4.6 0.06 0.96862745 0.96862745 0.9490196
vn 0.47149968 0 0
f 202//68 203//68 204//68
v 1.25 4.6 0.071538 0.96862745 0.96862745 0.9490196
v 1.25 4.6 0.06 0.96862745 0.96862745 0.9490196
v 1.25 4.65 0.05 0.96862745 0.96862745 0.9490196
vn 0.5304335 0 0
f 205//69 206//69 207//69
v 1.25 4.6 0.06 0.96862745 0.96862745 0.9490196
v 1.25 4.6 0.05 0.96862745 0.96862745 0.9490196
v 1.25 4.65 0.05 0.96862745 0.96862745 0.9490196
vn 0.47150356 0 0
f 208//70 209//70 210//70
v -1.25 5 -0 0.91764706 0.8980392 0.85882354
v -1.25 0.35 -0 0.91764706 0.8980392 0.85882354
v 1.25 0.35 -0 0.91764706 0.8980392 0.85882354
vn 0 0 1
f 211//71 212//71 213//71
v -1.25 -1.5 -0.35 0.91764706 0.8980392 0.85882354
v -1.25 -1.5 -0.29 0.91764706 0.8980392 0.85882354
v -1.25 0.35 -0.29 0.91764706 0.8980392 0.85882354
vn -1 0 0
f 214//72 215//72 216//72
v -1.25 -1.5 -0.35 0.91764706 0.8980392 0.85882354
v -1.25 0.35 -0.29 0.91764706 0.8980392 0.85882354
v -1.25 5 -0.35 0.91764706 0.8980392 0.85882354
vn -1 0 0
f 217//73 218//73 219//73
v -1.25 -1.5 -0.35 0.91764706 0.8980392 0.85882354
v 1.25 -1.5 -0.35 0.91764706 0.8980392 0.85882354
v -1.25 -1.5 -0.29 0.91764706 0.8980392 0.85882354
vn 0 -1 0
f 220//74 221//74 222//74
v -1.25 -1.5 -0.35 0.91764706 0.8980392 0.85882354
v -1.25 5 -0.35 0.91764706 0.8980392 0.85882354
v 1.25 -1.5 -0.35 0.91764706 0.8980392 0.85882354
vn 0 0 -1
f 223//75 224//75 225//75
v -1.25 5 -0.35 0.91764706 0.8980392 0.85882354
v -1.25 0.35 -0.29 0.91764706 0.8980392 0.85882354
v -1.25 0.35 -0 0.91764706 0.8980392 0.85882354
vn -1 0 0
f 226//76 227//76 228//76
v -1.25 5 -0 0.91764706 0.8980392 0.85882354
v -1.25 5 -0.35 0.91764706 0.8980392 0.85882354
v -1.25 0.35 -0 0.91764706 0.8980392 0.85882354
vn -1 -0 -0
f 229//77 230//77 231//77
v -1.25 5 -0 0.91764706 0.8980392 0.85882354
v 1.25 5 -0 0.91764706 0.8980392 0.85882354
v -1.25 5 -0.35 0.91764706 0.8980392 0.85882354
vn -0 1 0
f 232//78 233//78 234//78
v -1.25 5 -0 0.91764706 0.8980392 0.85882354
v 1.25 0.35 -0 0.91764706 0.8980392 0.85882354
v 1.25 5 -0 0.91764706 0.8980392 0.85882354
vn -0 0 1
f 235//79 236//79 237//79
v 1.25 5 -0 0.91764706 0.8980392 0.85882354
v 1.25 0.35 -0 0.91764706 0.8980392 0.85882354
v 1.25 0.35 -0.270192 0.91764706 0.8980392 0.85882354
vn 1 0 0
f 238//80 239//80 240//80
v 1.25 -1.5 -0.35 0.91764706 0.8980392 0.85882354
v 1.25 -1.5 -0.29 0.91764706 0.8980392 0.85882354
v -1.25 -1.5 -0.29 0.91764706 0.8980392 0.85882354
vn 0 -1 0
f 241//81 242//81 243//81
v 1.25 -1.5 -0.35 0.91764706 0.8980392 0.85882354
v 1.25 5 -0.35 0.91764706 0.8980392 0.85882354
v 1.25 -1.5 -0.29 0.91764706 0.8980392 0.85882354
vn 1 0 0
f 244//82 245//82 246//82
v 1.25 5 -0.35 0.91764706 0.8980392 0.85882354
v 1.25 0.186997 -0.29 0.91764706 0.8980392 0.85882354
v 1.25 -1.5 -0.29 0.91764706 0.8980392 0.85882354
vn 1 0 0
f 247//83 248//83 249//83
v -1.25 5 -0.35 0.91764706 0.8980392 0.85882354
v 1.25 5 -0.35 0.91764706 0.8980392 0.85882354
v 1.25 -1.5 -0.35 0.91764706 0.8980392 0.85882354
vn 0 0 -1
f 250//84 251//84 252//84
v -1.25 5 -0.35 0.91764706 0.8980392 0.85882354
v 1.25 5 -0 0.91764706 0.8980392 0.85882354
v 1.25 5 -0.35 0.91764706 0.8980392 0.85882354
vn 0 1 0
f 253//85 254//85 255//85
v 1.25 5 -0 0.91764706 0.8980392 0.85882354
v 1.25 0.35 -0.270192 0.91764706 0.8980392 0.85882354
v 1.25 5 -0.35 0.91764706 0.8980392 0.85882354
vn 1 0 0
f 256//86 257//86 258//86
v 1.25 5 -0.35 0.91764706 0.8980392 0.85882354
v 1.25 0.35 -0.270192 0.91764706 0.8980392 0.85882354
v 1.25 0.186997 -0.29 0.91764706 0.8980392 0.85882354
vn 1 0 0
f 259//87 260//87 261//87
v -1.25 -1.5 0.06 0.61960787 0.60784316 0.6
v -1.25 0.35 0.06 0.61960787 0.60784316 0.6
v -1.25 0.35 0.03 0.61960787 0.60784316 0.6
vn -1 0 0
f 262//88 263//88 264//88
v -1.25 -1.5 0.06 0.61960787 0.60784316 0.6
v -1.25 0.35 0.03 0.61960787 0.60784316 0.6
v -1.25 0.35 -0 0.61960787 0.60784316 0.6
vn -1 0 0
f 265//89 266//89 267//89
v -1.25 -1.5 0.06 0.61960787 0.60784316 0.6
v -1.25 0.35 -0 0.61960787 0.60784316 0.6
v -1.25 0.35 -0.29 0.61960787 0.60784316 0.6
vn -1 0 0
f 268//90 269//90 270//90
v -1.25 -1.5 0.06 0.61960787 0.60784316 0.6
v 1.25 0.35 0.06 0.61960787 0.60784316 0.6
v -1.25 0.35 0.06 0.61960787 0.60784316 0.6
vn 0 0 1
f 271//91 272//91 273//91
v 1.25 0.35 -0 0.61960787 0.60784316 0.6
v -1.25 0.35 -0 0.61960787 0.60784316 0.6
v -1.25 0.35 0.03 0.61960787 0.60784316 0.6
vn 0 1 0
f 274//92 275//92 276//92
v -1.25 -1.5 0.06 0.61960787 0.60784316 0.6
v -1.25 0.35 -0.29 0.61960787 0.60784316 0.6
v -1.25 -1.5 -0.29 0.61960787 0.60784316 0.6
vn -1 0 0
f 277//93 278//93 279//93
v -1.25 -1.5 0.06 0.61960787 0.60784316 0.6
v -1.25 -1.5 -0.29 0.61960787 0.60784316 0.6
v 1.25 -1.5 -0.29 0.61960787 0.60784316 0.6
vn 0 -1 0
f 280//94 281//94 282//94
v -1.25 -1.5 0.06 0.61960787 0.60784316 0.6
v 1.25 -1.5 0.06 0.61960787 0.60784316 0.6
v 1.25 0.35 0.06 0.61960787 0.60784316 0.6
vn 0 0 1
f 283//95 284//95 285//95
v 1.25 0.35 -0 0.61960787 0.60784316 0.6
v -1.25 0.35 0.03 0.61960787 0.60784316 0.6
v 1.25 0.35 0.03 0.61960787 0.60784316 0.6
vn 0 1 -0
f 286//96 287//96 288//96
v -1.25 -1.5 0.06 0.61960787 0.60784316 0.6
v 1.25 -1.5 -0.29 0.61960787 0.60784316 0.6
v 1.25 -1.5 0.06 0.61960787 0.60784316 0.6
vn 0 -1 0
f 289//97 290//97 291//97
v 1.25 -1.5 0.06 0.61960787 0.60784316 0.6
v 1.25 -1.5 -0.29 0.61960787 0.60784316 0.6
v 1.25 0.35 0.06 0.61960787 0.60784316 0.6
vn 1 -0 0
f 292//98 293//98 294//98
v 1.25 0.35 0.03 0.61960787 0.60784316 0.6
v 1.25 0.35 0.06 0.61960787 0.60784316 0.6
v 1.25 0.186997 -0.29 0.61960787 0.60784316 0.6
vn 0.99991053 0 -0
f 295//99 296//99 297//99
v 1.25 0.35 0.03 0.61960787 0.60784316 0.6
v 1.25 0.186997 -0.29 0.61960787 0.60784316 0.6
v 1.25 0.35 -0 0.61960787 0.60784316 0.6
vn 0.99991053 0 0
f 298//100 299//100 300//100
v 1.25 -1.5 -0.29 0.61960787 0.60784316 0.6
v 1.25 0.186997 -0.29 0.61960787 0.60784316 0.6
v 1.25 0.35 0.06 0.61960787 0.60784316 0.6
vn 1 0 0
f 301//101 302//101 303//101
v 1.25 0.35 -0 0.61960787 0.60784316 0.6
v 1.25 0.186997 -0.29 0.61960787 0.60784316 0.6
v 1.25 0.35 -0.270192 0.61960787 0.60784316 0.6
vn 1 0 0
f 304//102 305//102 306//102
v -1.21 0.35 0.09 0.29803923 0.41960785 0.5176471
v -1.208677 0.35 0.089008 0.29803923 0.41960785 0.5176471
v -1.17 0.35 0.09 0.29803923 0.41960785 0.5176471
vn 0 -0.04061006 0
f 307//103 308//103 309//103
v -1.208677 0.35 0.089008 0.29803923 0.41960785 0.5176471
v -1.25 0.35 0.06 0.29803923 0.41960785 0.5176471
v 1.25 0.35 0.06 0.29803923 0.41960785 0.5176471
vn 0 -0.99999994 -0
f 310//104 311//104 312//104
v -1.208677 0.35 0.089008 0.29803923 0.41960785 0.5176471
v 1.25 0.35 0.06 0.29803923 0.41960785 0.5176471
v -1.17 0.35 0.09 0.29803923 0.41960785 0.5176471
vn 0 -0.9986402 0
f 313//105 314//105 315//105
v -1.17 0.35 0.09 0.29803923 0.41960785 0.5176471
v 1.25 0.35 0.06 0.29803923 0.41960785 0.5176471
v -0.416666 0.35 0.09 0.29803923 0.41960785 0.5176471
vn 0 -1 0
f 316//106 317//106 318//106
v -1.25 0.35 0.06 0.29803923 0.41960785 0.5176471
v -1.25 4.6 0.03 0.29803923 0.41960785 0.5176471
v -1.25 0.35 0.03 0.29803923 0.41960785 0.5176471
vn -1 0 0
f 319//107 320//107 321//107
v -1.25 0.35 0.06 0.29803923 0.41960785 0.5176471
v -1.25 4.55 0.06 0.29803923 0.41960785 0.5176471
v -1.25 4.55 0.05 0.29803923 0.41960785 0.5176471
vn -1 0 0
f 322//108 323//108 324//108
v -1.25 0.35 0.06 0.29803923 0.41960785 0.5176471
v -1.25 4.55 0.05 0.29803923 0.41960785 0.5176471
v -1.25 4.6 0.03 0.29803923 0.41960785 0.5176471
vn -0.99999994 0 0
f 325//109 326//109 327//109
v -1.17 0.35 0.09 0.29803923 0.41960785 0.5176471
v -0.416666 0.35 0.09 0.29803923 0.41960785 0.5176471
v -1.17 4.55 0.09 0.29803923 0.41960785 0.5176471
vn 0 0 1
f 328//110 329//110 330//110
v -0.416666 0.35 0.09 0.29803923 0.41960785 0.5176471
v -0.416666 4.55 0.09 0.29803923 0.41960785 0.5176471
v -1.17 4.55 0.09 0.29803923 0.41960785 0.5176471
vn 0 -0 1
f 331//111 332//111 333//111
v -1.25 4.55 0.05 0.29803923 0.41960785 0.5176471
v -1.25 4.6 0.05 0.29803923 0.41960785 0.5176471
v -1.25 4.6 0.03 0.29803923 0.41960785 0.5176471
vn -0.7714884 0 0
f 334//112 335//112 336//112
v -1.25 4.6 0.03 0.29803923 0.41960785 0.5176471
v 1.25 0.35 0.03 0.29803923 0.41960785 0.5176471
v -1.25 0.35 0.03 0.29803923 0.41960785 0.5176471
vn 0 0 -1
f 337//113 338//113 339//113
v -0.336666 0.35 0.09 0.29803923 0.41960785 0.5176471
v 0.416666 0.35 0.09 0.29803923 0.41960785 0.5176471
v -0.336666 4.55 0.09 0.29803923 0.41960785 0.5176471
vn 0 0 0.99999994
f 340//114 341//114 342//114
v -1.25 4.6 0.05 0.29803923 0.41960785 0.5176471
v 1.25 4.6 0.03 0.29803923 0.41960785 0.5176471
v -1.25 4.6 0.03 0.29803923 0.41960785 0.5176471
vn 0 1 0
f 343//115 344//115 345//115
v -0.416666 0.35 0.09 0.29803923 0.41960785 0.5176471
v 1.25 0.35 0.06 0.29803923 0.41960785 0.5176471
v -0.376666 0.35 0.09 0.29803923 0.41960785 0.5176471
vn 0 -0.84223104 0
f 346//116 347//116 348//116
v -0.376666 0.35 0.09 0.29803923 0.41960785 0.5176471
v 1.25 0.35 0.06 0.29803923 0.41960785 0.5176471
v -0.336666 0.35 0.09 0.29803923 0.41960785 0.5176471
vn 0 -0.8422313 0
f 349//117 350//117 351//117
v -0.336666 0.35 0.09 0.29803923 0.41960785 0.5176471
v 1.25 0.35 0.06 0.29803923 0.41960785 0.5176471
v 0.416666 0.35 0.09 0.29803923 0.41960785 0.5176471
vn 0 -1 0
f 352//118 353//118 354//118
v 0.416666 0.35 0.09 0.29803923 0.41960785 0.5176471
v 1.25 0.35 0.06 0.29803923 0.41960785 0.5176471
v 0.456666 0.35 0.09 0.29803923 0.41960785 0.5176471
vn 0 -0.84223104 0
f 355//119 356//119 357//119
v 0.456666 0.35 0.09 0.29803923 0.41960785 0.5176471
v 1.25 0.35 0.06 0.29803923 0.41960785 0.5176471
v 0.496666 0.35 0.09 0.29803923 0.41960785 0.5176471
vn 0 -0.8422313 0
f 358//120 359//120 360//120
v 0.496666 0.35 0.09 0.29803923 0.41960785 0.5176471
v 1.25 0.35 0.06 0.29803923 0.41960785 0.5176471
v 1.17 0.35 0.09 0.29803923 0.41960785 0.5176471
vn 0 -1 0
f 361//121 362//121 363//121
v 1.17 0.35 0.09 0.29803923 0.41960785 0.5176471
v 1.25 0.35 0.06 0.29803923 0.41960785 0.5176471
v 1.21 0.35 0.09 0.29803923 0.41960785 0.5176471
vn 0 -0.84223187 0
f 364//122 365//122 366//122
v -0.336666 4.55 0.09 0.29803923 0.41960785 0.5176471
v 0.416666 0.35 0.09 0.29803923 0.41960785 0.5176471
v 0.416666 4.55 0.09 0.29803923 0.41960785 0.5176471
vn -0 0 0.99999994
f 367//123 368//123 369//123
v -1.25 4.6 0.03 0.29803923 0.41960785 0.5176471
v 1.25 4.6 0.03 0.29803923 0.41960785 0.5176471
v 1.25 0.35 0.03 0.29803923 0.41960785 0.5176471
vn 0 0 -1
f 370//124 371//124 372//124
v -1.25 4.6 0.05 0.29803923 0.41960785 0.5176471
v 1.25 4.6 0.05 0.29803923 0.41960785 0.5176471
v 1.25 4.6 0.03 0.29803923 0.41960785 0.5176471
vn -0 1 0
f 373//125 374//125 375//125
v 0.496666 0.35 0.09 0.29803923 0.41960785 0.5176471
v 1.17 0.35 0.09 0.29803923 0.41960785 0.5176471
v 0.496666 4.55 0.09 0.29803923 0.41960785 0.5176471
vn 0 0 1
f 376//126 377//126 378//126
v 1.17 0.35 0.09 0.29803923 0.41960785 0.5176471
v 1.17 4.55 0.09 0.29803923 0.41960785 0.5176471
v 0.496666 4.55 0.09 0.29803923 0.41960785 0.5176471
vn 0 -0 1
f 379//127 380//127 381//127
v 1.25 4.6 0.03 0.29803923 0.41960785 0.5176471
v 1.25 0.35 0.06 0.29803923 0.41960785 0.5176471
v 1.25 0.35 0.03 0.29803923 0.41960785 0.5176471
vn 1 0 0
f 382//128 383//128 384//128
v 1.25 0.35 0.06 0.29803923 0.41960785 0.5176471
v 1.25 4.55 0.05 0.29803923 0.41960785 0.5176471
v 1.25 4.55 0.06 0.29803923 0.41960785 0.5176471
vn 1 -0 0
f 385//129 386//129 387//129
v 1.25 0.35 0.06 0.29803923 0.41960785 0.5176471
v 1.25 4.6 0.03 0.29803923 0.41960785 0.5176471
v 1.25 4.55 0.05 0.29803923 0.41960785 0.5176471
vn 1 0 0
f 388//130 389//130 390//130
v 1.25 4.6 0.09 0.29803923 0.41960785 0.5176471
v 1.25 4.565107 0.06 0.29803923 0.41960785 0.5176471
v 1.25 4.6 0.084661 0.29803923 0.41960785 0.5176471
vn 0.18848427 0 0
f 391//131 392//131 393//131
v 1.25 4.6 0.09 0.29803923 0.41960785 0.5176471
v 1.25 4.55 0.06 0.29803923 0.41960785 0.5176471
v 1.25 4.565107 0.06 0.29803923 0.41960785 0.5176471
vn 0.43340147 0 0
f 394//132 395//132 396//132
v 1.25 4.55 0.06 0.29803923 0.41960785 0.5176471
v 1.25 4.55 0.05 0.29803923 0.41960785 0.5176471
v 1.25 4.565107 0.06 0.29803923 0.41960785 0.5176471
vn 0.15347013 -0 0
f 397//133 398//133 399//133
v 1.25 4.55 0.05 0.29803923 0.41960785 0.5176471
v 1.25 4.6 0.03 0.29803923 0.41960785 0.5176471
v 1.25 4.6 0.05 0.29803923 0.41960785 0.5176471
vn 0.7714884 -0 0
f 400//134 401//134 402//134
