# generated by tools/scad2obj from build/3mf/tent_eave.3mf
v -1.25 -0.156 0.15 0.96862745 0.96862745 0.96862745
v -1.25 -0.1848 0.12 0.96862745 0.96862745 0.96862745
v -1.25 -0.216 0.15 0.96862745 0.96862745 0.96862745
vn -0.95110166 -0 0
f 1//1 2//1 3//1
v -1.25 -0.1848 0.12 0.96862745 0.96862745 0.96862745
v -1.25 -0.156 0.15 0.96862745 0.96862745 0.96862745
v -1.25 -0.1368 0.12 0.96862745 0.96862745 0.96862745
vn -0.9004441 0 0
f 4//2 5//2 6//2
v -1.25 -0.06 -0 0.96862745 0.96862745 0.96862745
v -1.25 -0.1848 0.12 0.96862745 0.96862745 0.96862745
v -1.25 -0.1368 0.12 0.96862745 0.96862745 0.96862745
vn -0.99998486 0 0
f 7//3 8//3 9//3
v -1.25 -0.06 -0 0.96862745 0.96862745 0.96862745
v -1.25 -0.1368 0.12 0.96862745 0.96862745 0.96862745
v -1.25 -0.1248 0.12 0.96862745 0.96862745 0.96862745
vn -0.90044415 0 0
f 10//4 11//4 12//4
v -1.25 -0.06 -0 0.96862745 0.96862745 0.96862745
v -1.25 -0.1248 0.12 0.96862745 0.96862745 0.96862745
v -1.25 0 -0 0.96862745 0.96862745 0.96862745
vn -0.99999917 0 0
f 13//5 14//5 15//5
v -1.25 0 -0 0.96862745 0.96862745 0.96862745
v -1.25 -0.1248 0.12 0.96862745 0.96862745 0.96862745
v 1.25 -0.1248 0.12 0.96862745 0.96862745 0.96862745
vn -5.151669e-10 0.69310874 0.72083306
f 16//6 17//6 18//6
v -1.25 -0.06 -0 0.96862745 0.96862745 0.96862745
v 1.25 -0.06 -0 0.96862745 0.96862745 0.96862745
v -1.25 -0.1848 0.12 0.96862745 0.96862745 0.96862745
vn 0 -0.69310874 -0.72083306
f 19//7 20//7 21//7
v -1.25 -0.06 -0 0.96862745 0.96862745 0.96862745
v -1.25 0 -0 0.96862745 0.96862745 0.96862745
v 1.25 -0.06 -0 0.96862745 0.96862745 0.96862745
vn 0 0 -1
f 22//8 23//8 24//8
v 1.25 -0.156 0.15 0.96862745 0.96862745 0.96862745
v 1.25 -0.216 0.15 0.96862745 0.96862745 0.96862745
v 1.25 -0.1848 0.12 0.96862745 0.96862745 0.96862745
vn 0.95110166 0 0
f 25//9 26//9 27//9
v 1.25 -0.156 0.15 0.96862745 0.96862745 0.96862745
v 1.25 -0.1848 0.12 0.96862745 0.96862745 0.96862745
v 1.25 -0.1368 0.12 0.96862745 0.96862745 0.96862745
vn 0.9004441 0 0
f 28//10 29//10 30//10
v 1.25 -0.06 -0 0.96862745 0.96862745 0.96862745
v 1.25 -0.1848 0.12 0.96862745 0.96862745 0.96862745
v -1.25 -0.1848 0.12 0.96862745 0.96862745 0.96862745
vn -5.151669e-10 -0.69310874 -0.72083306
f 31//11 32//11 33//11
v -1.25 0 -0 0.96862745 0.96862745 0.96862745
v 1.25 -0.1248 0.12 0.96862745 0.96862745 0.96862745
v 1.25 0 -0 0.96862745 0.96862745 0.96862745
vn -0 0.69310874 0.72083306
f 34//12 35//12 36//12
v -1.25 0 -0 0.96862745 0.96862745 0.96862745
v 1.25 0 -0 0.96862745 0.96862745 0.96862745
v 1.25 -0.06 -0 0.96862745 0.96862745 0.96862745
vn 0 0 -1
f 37//13 38//13 39//13
v 1.25 -0.1848 0.12 0.96862745 0.96862745 0.96862745
v 1.25 -0.06 -0 0.96862745 0.96862745 0.96862745
v 1.25 -0.1368 0.12 0.96862745 0.96862745 0.96862745
vn 0.99998486 -0 0
f 40//14 41//14 42//14
v 1.25 -0.06 -0 0.96862745 0.96862745 0.96862745
v 1.25 -0.1248 0.12 0.96862745 0.96862745 0.96862745
v 1.25 -0.1368 0.12 0.96862745 0.96862745 0.96862745
vn 0.9004441 0 0
f 43//15 44//15 45//15
v 1.25 -0.06 -0 0.96862745 0.96862745 0.96862745
v 1.25 0 -0 0.96862745 0.96862745 0.96862745
v 1.25 -0.1248 0.12 0.96862745 0.96862745 0.96862745
vn 0.99999917 0 -0
f 46//16 47//16 48//16
v -1.25 -0.316 0.2 0.54901963 0.5176471 0.49803922
v -1.25 -0.216 0.15 0.54901963 0.5176471 0.49803922
v -1.25 -0.316 0.12 0.54901963 0.5176471 0.49803922
vn -0.9999999 0 0
f 49//17 50//17 51//17
v -1.25 -0.316 0.2 0.54901963 0.5176471 0.49803922
v -1.25 -0.156 0.15 0.54901963 0.5176471 0.49803922
v -1.25 -0.216 0.15 0.54901963 0.5176471 0.49803922
vn -0.99571663 0 0
f 52//18 53//18 54//18
v -1.25 -0.316 0.2 0.54901963 0.5176471 0.49803922
v -1.25 -0.056 0.12 0.54901963 0.5176471 0.49803922
v -1.25 -0.156 0.15 0.54901963 0.5176471 0.49803922
vn -0.2019824 0 0
f 55//19 56//19 57//19
v -1.25 -0.316 0.12 0.54901963 0.5176471 0.49803922
v -1.25 -0.216 0.15 0.54901963 0.5176471 0.49803922
v -1.25 -0.1848 0.12 0.54901963 0.5176471 0.49803922
vn -0.99936897 0 0
f 58//20 59//20 60//20
v -1.25 -0.316 0.2 0.54901963 0.5176471 0.49803922
v -1.25 -0.316 0.12 0.54901963 0.5176471 0.49803922
v 1.25 -0.316 0.12 0.54901963 0.5176471 0.49803922
vn 0 -1 0
f 61//21 62//21 63//21
v -1.25 -0.316 0.12 0.54901963 0.5176471 0.49803922
v -1.25 -0.1848 0.12 0.54901963 0.5176471 0.49803922
v 1.25 -0.316 0.12 0.54901963 0.5176471 0.49803922
vn 0 0 -1
f 64//22 65//22 66//22
v -1.25 -0.316 0.2 0.54901963 0.5176471 0.49803922
v -1.25 -0.056 0.2 0.54901963 0.5176471 0.49803922
v -1.25 -0.056 0.12 0.54901963 0.5176471 0.49803922
vn -1 0 0
f 67//23 68//23 69//23
v -1.25 -0.1248 0.12 0.54901963 0.5176471 0.49803922
v -1.25 -0.1368 0.12 0.54901963 0.5176471 0.49803922
v -1.25 -0.156 0.15 0.54901963 0.5176471 0.49803922
vn -0.3528018 0 0
f 70//24 71//24 72//24
v -1.25 -0.056 0.12 0.54901963 0.5176471 0.49803922
v -1.25 -0.1248 0.12 0.54901963 0.5176471 0.49803922
v -1.25 -0.156 0.15 0.54901963 0.5176471 0.49803922
vn -0.97123 0 0
f 73//25 74//25 75//25
v -1.25 -0.316 0.2 0.54901963 0.5176471 0.49803922
v 1.25 -0.056 0.2 0.54901963 0.5176471 0.49803922
v -1.25 -0.056 0.2 0.54901963 0.5176471 0.49803922
vn 0 0 1
f 76//26 77//26 78//26
v -1.25 -0.056 0.2 0.54901963 0.5176471 0.49803922
v 1.25 -0.056 0.2 0.54901963 0.5176471 0.49803922
v -1.25 -0.056 0.12 0.54901963 0.5176471 0.49803922
vn -0 1 0
f 79//27 80//27 81//27
v -1.25 -0.056 0.12 0.54901963 0.5176471 0.49803922
v 1.25 -0.1248 0.12 0.54901963 0.5176471 0.49803922
v -1.25 -0.1248 0.12 0.54901963 0.5176471 0.49803922
vn 0 0 -1
f 82//28 83//28 84//28
v -1.25 -0.316 0.2 0.54901963 0.5176471 0.49803922
v 1.25 -0.316 0.12 0.54901963 0.5176471 0.49803922
v 1.25 -0.316 0.2 0.54901963 0.5176471 0.49803922
vn 0 -1 0
f 85//29 86//29 87//29
v -1.25 -0.316 0.2 0.54901963 0.5176471 0.49803922
v 1.25 -0.316 0.2 0.54901963 0.5176471 0.49803922
v 1.25 -0.056 0.2 0.54901963 0.5176471 0.49803922
vn 0 0 1
f 88//30 89//30 90//30
v 1.25 -0.316 0.12 0.54901963 0.5176471 0.49803922
v -1.25 -0.1848 0.12 0.54901963 0.5176471 0.49803922
v 1.25 -0.1848 0.12 0.54901963 0.5176471 0.49803922
vn 0 0 -1
f 91//31 92//31 93//31
v 1.25 -0.316 0.2 0.54901963 0.5176471 0.49803922
v 1.25 -0.316 0.12 0.54901963 0.5176471 0.49803922
v 1.25 -0.056 0.2 0.54901963 0.5176471 0.49803922
vn 1 -0 0
f 94//32 95//32 96//32
v 1.25 -0.056 0.2 0.54901963 0.5176471 0.49803922
v 1.25 -0.316 0.12 0.54901963 0.5176471 0.49803922
v 1.25 -0.216 0.15 0.54901963 0.5176471 0.49803922
vn 0.20198357 0 0
f 97//33 98//33 99//33
v 1.25 -0.316 0.12 0.54901963 0.5176471 0.49803922
v 1.25 -0.1848 0.12 0.54901963 0.5176471 0.49803922
v 1.25 -0.216 0.15 0.54901963 0.5176471 0.49803922
vn 0.99936897 0 0
f 100//34 101//34 102//34
v -1.25 -0.056 0.12 0.54901963 0.5176471 0.49803922
v 1.25 -0.056 0.2 0.54901963 0.5176471 0.49803922
v 1.25 -0.056 0.12 0.54901963 0.5176471 0.49803922
vn 0 1 0
f 103//35 104//35 105//35
v -1.25 -0.056 0.12 0.54901963 0.5176471 0.49803922
v 1.25 -0.056 0.12 0.54901963 0.5176471 0.49803922
v 1.25 -0.1248 0.12 0.54901963 0.5176471 0.49803922
vn 0 0 -1
f 106//36 107//36 108//36
v 1.25 -0.056 0.2 0.54901963 0.5176471 0.49803922
v 1.25 -0.216 0.15 0.54901963 0.5176471 0.49803922
v 1.25 -0.156 0.15 0.54901963 0.5176471 0.49803922
vn 0.9957167 0 0
f 109//37 110//37 111//37
v 1.25 -0.056 0.2 0.54901963 0.5176471 0.49803922
v 1.25 -0.156 0.15 0.54901963 0.5176471 0.49803922
v 1.25 -0.1368 0.12 0.54901963 0.5176471 0.49803922
vn 0.99939924 0 0
f 112//38 113//38 114//38
v 1.25 -0.056 0.2 0.54901963 0.5176471 0.49803922
v 1.25 -0.1368 0.12 0.54901963 0.5176471 0.49803922
v 1.25 -0.1248 0.12 0.54901963 0.5176471 0.49803922
vn 0.75437933 0 0
f 115//39 116//39 117//39
v 1.25 -0.056 0.2 0.54901963 0.5176471 0.49803922
v 1.25 -0.1248 0.12 0.54901963 0.5176471 0.49803922
v 1.25 -0.056 0.12 0.54901963 0.5176471 0.49803922
vn 0.99997455 0 0
f 118//40 119//40 120//40
